<svg xmlns="http://www.w3.org/2000/svg" version="1.1" xmlns:xlink="http://www.w3.org/1999/xlink" xmlns:svgjs="http://svgjs.dev/svgjs" width="800" height="800" preserveAspectRatio="none" viewBox="0 0 800 800"><g mask="url(&quot;#SvgjsMask1017&quot;)" fill="none"><rect width="800" height="800" x="0" y="0" fill="rgba(192, 227, 219, 1)"></rect><path d="M0,330.691C65.683,325.657,136.593,334.3,190.598,296.576C243.998,259.275,256.888,188.871,286.259,130.73C317.02,69.838,364.421,15.391,367.08,-52.778C369.979,-127.084,357.997,-212.884,301.551,-261.296C245.318,-309.525,158.995,-279.775,86.225,-293.657C22.539,-305.806,-34.739,-344.968,-99.169,-337.739C-170.032,-329.788,-238.552,-300.632,-290.163,-251.427C-344.517,-199.607,-401.317,-131.391,-394.007,-56.65C-386.647,18.596,-286.84,47.893,-254.216,116.097C-222.547,182.305,-266.429,279.965,-210.347,327.306C-155.654,373.474,-71.365,336.161,0,330.691" fill="#5bb6a1"></path><path d="M800 1041.173C845.067 1040.459 881.337 1009.064 922.37 990.412 971.424 968.114 1036.146 966.587 1064.664 920.8679999999999 1093.286 874.983 1078.805 814.175 1064.9 761.913 1052.058 713.643 1022.796 673.006 988.947 636.2760000000001 955.954 600.475 919.389 566.188 872.489 553.125 825.909 540.1510000000001 777.935 553.528 730.816 564.38 680.884 575.88 625.495 581.068 590.138 618.154 554.309 655.735 549.4110000000001 711.515 541.6 762.848 533.731 814.566 518.594 871.262 544.731 916.577 570.5360000000001 961.316 628.701 971.673 675.114 994.327 715.895 1014.232 754.626 1041.891 800 1041.173" fill="#ffffff"></path></g><defs><mask id="SvgjsMask1017"><rect width="800" height="800" fill="#ffffff"></rect></mask></defs></svg>